<svg width="2436" height="1878" viewBox="0 0 2436 1878" fill="none" xmlns="http://www.w3.org/2000/svg">
<path d="M2021.02 1349.76C2050.22 1392.78 2066.19 1438.93 2066.19 1487C2066.19 1543.53 2044.23 1597.47 2004.05 1646.9C2006.05 1653.59 2007.3 1660.41 2007.3 1667.24C2007.3 1935.29 429.215 1931.19 429.215 1667.24C429.215 1660.41 430.213 1653.59 432.459 1646.9C392.283 1597.47 370.323 1543.53 370.323 1487C370.323 1438.93 386.294 1392.78 415.49 1349.76C167.947 1247.49 12.4845 1098.51 12.4845 932.74C12.4845 766.969 170.443 615.671 421.229 513.259C318.918 461.506 259.279 399.24 259.279 332.33C259.279 257.501 333.891 188.407 459.159 133.514C596.156 162.872 884.623 183.081 1218.26 183.081C1551.89 183.081 1840.36 162.872 1977.35 133.514C2102.62 188.407 2177.23 257.501 2177.23 332.33C2177.23 399.24 2117.6 461.506 2015.28 513.259C2265.82 615.671 2424.03 765.603 2424.03 932.74C2424.03 1099.88 2268.57 1247.49 2021.27 1349.76H2021.02Z" fill="url(#paint0_linear_271_901)"/>
<path d="M1222.49 1873.57C834.21 1873.57 416.482 1808.98 416.482 1667.24C416.482 1660.69 417.48 1654.13 419.227 1647.85C378.302 1596.78 357.59 1542.71 357.59 1487.13C357.59 1440.98 372.064 1395.64 400.262 1352.36C145.732 1245.03 0.00109863 1092.5 0.00109863 932.74C0.00109863 772.977 146.231 619.904 401.759 512.712C300.196 459.048 246.546 396.782 246.546 332.33C246.546 257.501 317.165 186.904 450.918 128.188L456.657 125.73L463.395 127.232C602.388 157 898.591 176.39 1218 176.39C1537.41 176.39 1833.61 157.137 1972.61 127.232L1979.34 125.73L1985.08 128.188C2118.84 186.904 2189.46 257.364 2189.46 332.33C2189.46 396.782 2135.8 459.048 2034.24 512.712C2289.77 619.904 2436 772.567 2436 932.74C2436 1092.91 2294.01 1243.66 2035.49 1352.22C2063.94 1395.51 2078.16 1440.84 2078.16 1487C2078.16 1542.57 2057.45 1596.65 2016.53 1647.72C2018.27 1654 2019.27 1660.55 2019.27 1667.24C2019.27 1808.98 1606.03 1873.57 1222.24 1873.57H1222.49ZM461.149 141.297C337.128 196.736 271.499 262.69 271.499 332.33C271.499 395.143 326.148 455.908 429.458 508.206L440.437 513.805L428.459 518.721C172.183 623.591 24.955 774.479 24.955 932.74C24.955 1091 169.937 1239.7 422.72 1344.3L430.206 1347.31L426.962 1352.08C397.517 1395.23 382.544 1440.71 382.544 1486.86C382.544 1541.21 403.006 1594.05 443.432 1643.89L444.929 1645.8L444.18 1647.85C442.184 1654.13 441.186 1660.55 441.186 1667.11C441.186 1793.55 834.21 1859.78 1222.24 1859.78C1610.28 1859.78 1994.32 1799.42 1994.32 1667.11C1994.32 1660.55 1993.32 1654.13 1991.32 1647.85L1990.57 1645.8L1992.07 1643.89C2032.5 1594.05 2052.96 1541.21 2052.96 1486.86C2052.96 1440.57 2037.99 1395.23 2008.54 1352.08L2005.3 1347.31L2012.78 1344.3C2269.31 1238.2 2410.55 1091.96 2410.55 932.74C2410.55 773.523 2263.32 623.591 2006.79 518.721L1994.82 513.805L2005.79 508.206C2109.1 455.908 2163.75 395.007 2163.75 332.33C2163.75 262.826 2098.37 196.873 1974.1 141.297C1827.87 171.338 1539.41 189.909 1217.25 189.909C895.097 189.909 606.63 171.338 460.4 141.297H461.149Z" fill="#FAF8F1"/>
<path d="M2061.94 95.0077C2061.94 108.799 2031.5 121.908 1977.1 133.515C1840.1 162.873 1551.63 183.082 1218 183.082C884.367 183.082 595.9 162.873 458.904 133.515C404.504 121.908 374.06 108.799 374.06 95.0077C374.06 47.2152 738.637 8.29848 1193.05 6.93298C1201.28 6.93298 1209.52 6.93298 1217.75 6.93298C1225.99 6.93298 1234.47 6.93298 1242.46 6.93298C1697.12 8.29848 2061.44 47.2152 2061.44 95.0077H2061.94Z" fill="url(#paint1_linear_271_901)"/>
<path d="M1218.01 189.908C890.863 189.908 598.154 170.791 454.42 139.931C392.035 126.549 361.841 111.802 361.841 95.1428C361.841 35.0608 790.299 1.46954 1193.3 0.240596C1209.52 0.104046 1226.74 0.104046 1243.21 0.240596C1646.22 1.46954 2074.68 35.0608 2074.68 95.1428C2074.68 111.938 2044.23 126.549 1982.1 139.931C1838.11 170.791 1545.65 189.908 1218.51 189.908H1218.01ZM1217.76 13.759C1209.52 13.759 1201.54 13.759 1193.3 13.759C717.683 15.1245 386.545 57.7281 386.545 95.0062C386.545 104.974 414.493 116.718 463.403 127.095C602.396 156.863 898.599 176.253 1218.01 176.253C1537.42 176.253 1833.62 157 1972.61 127.095C2021.52 116.581 2049.47 104.838 2049.47 95.0062C2049.47 57.7281 1718.08 15.1245 1242.71 13.759C1234.23 13.759 1225.49 13.2128 1217.76 13.759Z" fill="#FAF8F1"/>
<path d="M541.756 456.727C634.335 456.727 709.447 415.489 709.447 364.692C709.447 313.896 634.335 272.657 541.756 272.657C449.178 272.657 374.066 313.896 374.066 364.692C374.066 415.489 449.178 456.727 541.756 456.727Z" fill="#FAF8F1"/>
<path d="M541.758 463.556C442.441 463.556 361.591 419.177 361.591 364.694C361.591 310.211 442.441 265.832 541.758 265.832C641.074 265.832 721.925 310.211 721.925 364.694C721.925 419.177 641.074 463.556 541.758 463.556ZM541.758 279.623C456.166 279.623 386.545 317.857 386.545 364.831C386.545 411.804 456.166 450.038 541.758 450.038C627.35 450.038 696.971 411.804 696.971 364.831C696.971 317.857 627.35 279.623 541.758 279.623Z" fill="#FAF8F1"/>
<path d="M1231.24 456.727C1323.82 456.727 1398.93 415.489 1398.93 364.692C1398.93 313.896 1323.82 272.657 1231.24 272.657C1138.66 272.657 1063.55 313.896 1063.55 364.692C1063.55 415.489 1138.66 456.727 1231.24 456.727Z" fill="#FAF8F1"/>
<path d="M1231.23 463.556C1131.91 463.556 1051.06 419.177 1051.06 364.694C1051.06 310.211 1131.91 265.832 1231.23 265.832C1330.54 265.832 1411.39 310.211 1411.39 364.694C1411.39 419.177 1330.54 463.556 1231.23 463.556ZM1231.23 279.623C1145.63 279.623 1076.01 317.857 1076.01 364.831C1076.01 411.804 1145.63 450.038 1231.23 450.038C1316.82 450.038 1386.44 411.804 1386.44 364.831C1386.44 317.857 1316.82 279.623 1231.23 279.623Z" fill="#FAF8F1"/>
<path d="M1894.5 456.727C1987.08 456.727 2062.19 415.489 2062.19 364.692C2062.19 313.896 1987.08 272.657 1894.5 272.657C1801.92 272.657 1726.81 313.896 1726.81 364.692C1726.81 415.489 1801.92 456.727 1894.5 456.727Z" fill="#FAF8F1"/>
<path d="M1894.51 463.556C1795.19 463.556 1714.34 419.177 1714.34 364.694C1714.34 310.211 1795.19 265.832 1894.51 265.832C1993.83 265.832 2074.68 310.211 2074.68 364.694C2074.68 419.177 1993.83 463.556 1894.51 463.556ZM1894.51 279.623C1808.92 279.623 1739.3 317.857 1739.3 364.831C1739.3 411.804 1808.92 450.038 1894.51 450.038C1980.1 450.038 2049.72 411.804 2049.72 364.831C2049.72 317.857 1980.1 279.623 1894.51 279.623Z" fill="#FAF8F1"/>
<path d="M1213.76 595.462C946.002 595.462 679.993 570.2 416.979 519.813L425.214 506.978C945.503 606.932 1479.02 606.932 2011.03 506.978L2019.02 519.95C1750.27 570.337 1481.26 595.599 1213.51 595.599L1213.76 595.462Z" fill="#FAF8F1"/>
<path d="M1224.25 1476.89C953.995 1476.89 681.748 1436.61 409.501 1355.77L384.048 1348.26L411.497 1343.34C1047.07 1227.82 1353.76 974.114 1322.81 589.316L1347.77 588.77C1378.71 974.933 1075.77 1231.37 446.682 1351.26C974.956 1502.83 1502.48 1500.38 2015.03 1343.89L2027.26 1355.77C1763 1436.47 1494.75 1476.89 1224.49 1476.89H1224.25Z" fill="#FAF8F1"/>
<path d="M1243.95 1767.06C979.443 1767.06 706.448 1729.1 426.715 1653.04L437.694 1640.75C989.675 1790.68 1514.45 1790.82 1997.81 1640.89L2010.04 1652.77C1764.49 1728.96 1508.47 1766.92 1243.71 1766.92L1243.95 1767.06Z" fill="#FAF8F1"/>
<path d="M27.6951 1005.93L14.7191 994.323C332.881 887.131 501.819 731.601 516.791 532.375L541.745 532.921C526.274 737.063 353.343 896.143 27.6951 1005.93Z" fill="#FAF8F1"/>
<path d="M156.722 1200.38L146.99 1187.81C685.495 1063.69 932.289 858.182 880.385 577.298L905.339 575.933C958.49 863.507 706.706 1073.66 156.971 1200.51L156.722 1200.38Z" fill="#FAF8F1"/>
<path d="M904.34 1457.23L895.606 1444.39C1625.01 1297.19 1926.45 997.055 1791.7 552.176L1816.4 549.991C1953.65 1002.24 1646.72 1307.57 904.34 1457.36V1457.23Z" fill="#FAF8F1"/>
<path d="M1735.06 1427.87L1718.59 1417.63C2221.41 1172.93 2332.45 876.072 2048.73 535.38L2071.43 529.644C2360.4 876.481 2247.11 1178.67 1735.31 1427.73L1735.06 1427.87Z" fill="#FAF8F1"/>
<path d="M432.201 1650.72C430.205 1657.41 428.957 1664.24 428.957 1671.06C428.957 1935.01 2007.04 1939.11 2007.04 1671.06C2007.04 1664.24 2006.04 1657.41 2003.8 1650.72C1508.96 1804.2 984.431 1800.79 431.952 1650.72H432.201Z" fill="#FAF8F1"/>
<path d="M1222.49 1877.39C1013.62 1877.39 818.235 1859.37 672.505 1826.87C505.064 1789.45 416.478 1735.52 416.478 1671.06C416.478 1663.69 417.476 1656.59 419.722 1649.49L422.467 1640.48L437.439 1644.57C989.419 1794.51 1514.2 1794.64 1997.56 1644.71L2013.03 1639.93L2016.02 1649.49C2018.27 1656.45 2019.27 1663.69 2019.27 1671.06C2019.27 1812.8 1606.03 1877.39 1222.24 1877.39H1222.49ZM442.18 1661.1C441.681 1664.37 441.432 1667.79 441.432 1671.06C441.432 1797.51 834.455 1863.74 1222.49 1863.74C1426.86 1863.74 1617.01 1846.26 1757.5 1814.58C1865.8 1790.14 1994.56 1745.48 1994.56 1671.06C1994.56 1667.92 1994.56 1664.78 1993.81 1661.64C1511.95 1807.48 990.168 1807.34 442.18 1661.1Z" fill="#FAF8F1"/>
<defs>
<linearGradient id="paint0_linear_271_901" x1="1218.26" y1="133.514" x2="1218.26" y2="1866.74" gradientUnits="userSpaceOnUse">
<stop stop-color="#7D7D7D"/>
<stop offset="0.498263" stop-color="#585757"/>
<stop offset="1" stop-color="#484847"/>
</linearGradient>
<linearGradient id="paint1_linear_271_901" x1="1218" y1="6.93298" x2="1218" y2="183.082" gradientUnits="userSpaceOnUse">
<stop stop-color="#7D7D7D"/>
<stop offset="0.498263" stop-color="#585757"/>
<stop offset="1" stop-color="#484847"/>
</linearGradient>
</defs>
</svg>
