<svg width="149" height="210" viewBox="0 0 149 210" fill="none" xmlns="http://www.w3.org/2000/svg">
<path d="M123.437 150.638C125.22 155.439 126.195 160.59 126.195 165.955C126.195 172.265 124.854 178.285 122.4 183.802C122.522 184.549 122.598 185.311 122.598 186.073C122.598 215.991 26.2146 215.534 26.2146 186.073C26.2146 185.311 26.2755 184.549 26.4127 183.802C23.9589 178.285 22.6177 172.265 22.6177 165.955C22.6177 160.59 23.5931 155.439 25.3763 150.638C10.2573 139.222 0.762207 122.594 0.762207 104.092C0.762207 85.5894 10.4097 68.7025 25.7269 57.2718C19.4781 51.4954 15.8355 44.5456 15.8355 37.0775C15.8355 28.7255 20.3925 21.0136 28.0435 14.8867C36.4108 18.1635 54.0293 20.4192 74.4064 20.4192C94.7835 20.4192 112.402 18.1635 120.769 14.8867C128.42 21.0136 132.977 28.7255 132.977 37.0775C132.977 44.5456 129.335 51.4954 123.086 57.2718C138.388 68.7025 148.051 85.437 148.051 104.092C148.051 122.747 138.556 139.222 123.452 150.638H123.437Z" fill="url(#paint0_linear_198_101)"/>
<path d="M74.6653 209.102C50.9504 209.102 25.4371 201.893 25.4371 186.073C25.4371 185.341 25.4981 184.61 25.6048 183.909C23.1053 178.209 21.8403 172.173 21.8403 165.97C21.8403 160.819 22.7242 155.759 24.4465 150.927C8.90071 138.948 0 121.924 0 104.092C0 86.2601 8.93119 69.175 24.5379 57.2109C18.3348 51.2212 15.058 44.2713 15.058 37.0776C15.058 28.7256 19.3712 20.846 27.5404 14.2924L27.8909 14.0181L28.3024 14.1857C36.7916 17.5082 54.8826 19.6725 74.391 19.6725C93.8994 19.6725 111.99 17.5235 120.48 14.1857L120.891 14.0181L121.242 14.2924C129.411 20.846 133.724 28.7103 133.724 37.0776C133.724 44.2713 130.447 51.2212 124.244 57.2109C139.851 69.175 148.782 86.2144 148.782 104.092C148.782 121.97 140.11 138.796 124.32 150.912C126.058 155.744 126.927 160.804 126.927 165.955C126.927 172.158 125.662 178.193 123.162 183.894C123.269 184.595 123.33 185.326 123.33 186.073C123.33 201.893 98.0907 209.102 74.6501 209.102H74.6653ZM28.1653 15.7555C20.5905 21.9434 16.5821 29.3047 16.5821 37.0776C16.5821 44.0884 19.9199 50.8706 26.2297 56.7079L26.9003 57.3328L26.1687 57.8815C10.5162 69.5865 1.52409 86.4278 1.52409 104.092C1.52409 121.756 10.3791 138.354 25.8181 150.028L26.2754 150.363L26.0772 150.897C24.2788 155.713 23.3644 160.788 23.3644 165.94C23.3644 172.006 24.6141 177.904 27.0831 183.467L27.1746 183.68L27.1289 183.909C27.0069 184.61 26.946 185.326 26.946 186.058C26.946 200.171 50.9504 207.563 74.6501 207.563C98.3498 207.563 121.806 200.826 121.806 186.058C121.806 185.326 121.745 184.61 121.623 183.909L121.577 183.68L121.668 183.467C124.137 177.904 125.387 172.006 125.387 165.94C125.387 160.773 124.473 155.713 122.674 150.897L122.476 150.363L122.933 150.028C138.601 138.186 147.227 121.863 147.227 104.092C147.227 86.3211 138.235 69.5865 122.568 57.8815L121.836 57.3328L122.507 56.7079C128.816 50.8706 132.154 44.0732 132.154 37.0776C132.154 29.32 128.161 21.9586 120.571 15.7555C111.64 19.1085 94.0213 21.1813 74.3453 21.1813C54.6692 21.1813 37.0507 19.1085 28.1195 15.7555H28.1653Z" fill="#FAF8F1"/>
<path d="M125.936 10.5887C125.936 12.128 124.077 13.5912 120.754 14.8866C112.387 18.1635 94.7687 20.4191 74.3915 20.4191C54.0144 20.4191 36.3959 18.1635 28.0286 14.8866C24.7061 13.5912 22.8467 12.128 22.8467 10.5887C22.8467 5.25438 45.1137 0.91071 72.8674 0.758301C73.3704 0.758301 73.8733 0.758301 74.3763 0.758301C74.8792 0.758301 75.3974 0.758301 75.8851 0.758301C103.654 0.91071 125.906 5.25438 125.906 10.5887H125.936Z" fill="url(#paint1_linear_198_101)"/>
<path d="M74.3918 21.1811C54.4109 21.1811 36.5333 19.0474 27.7545 15.6029C23.9443 14.1093 22.1001 12.4633 22.1001 10.6039C22.1001 3.89787 48.2688 0.148599 72.8829 0.0114307C73.8736 -0.00381023 74.9252 -0.00381023 75.9311 0.0114307C100.545 0.148599 126.714 3.89787 126.714 10.6039C126.714 12.4785 124.854 14.1093 121.059 15.6029C112.265 19.0474 94.4031 21.1811 74.4222 21.1811H74.3918ZM74.3765 1.52028C73.8736 1.52028 73.3858 1.52028 72.8829 1.52028C43.8337 1.67269 23.609 6.42787 23.609 10.5886C23.609 11.7012 25.3159 13.0119 28.3032 14.1703C36.7924 17.4928 54.8834 19.657 74.3918 19.657C93.9002 19.657 111.991 17.508 120.48 14.1703C123.468 12.9967 125.175 11.686 125.175 10.5886C125.175 6.42787 104.935 1.67269 75.9006 1.52028C75.3824 1.52028 74.849 1.45932 74.3765 1.52028Z" fill="#FAF8F1"/>
<path d="M33.0886 50.9618C38.743 50.9618 43.3305 46.359 43.3305 40.6894C43.3305 35.0198 38.743 30.417 33.0886 30.417C27.4342 30.417 22.8467 35.0198 22.8467 40.6894C22.8467 46.359 27.4342 50.9618 33.0886 50.9618Z" fill="#FAF8F1"/>
<path d="M33.0884 51.7241C27.0225 51.7241 22.0845 46.7708 22.0845 40.6897C22.0845 34.6086 27.0225 29.6553 33.0884 29.6553C39.1543 29.6553 44.0924 34.6086 44.0924 40.6897C44.0924 46.7708 39.1543 51.7241 33.0884 51.7241ZM33.0884 31.1946C27.8608 31.1946 23.6086 35.4621 23.6086 40.705C23.6086 45.9478 27.8608 50.2153 33.0884 50.2153C38.3161 50.2153 42.5683 45.9478 42.5683 40.705C42.5683 35.4621 38.3161 31.1946 33.0884 31.1946Z" fill="#FAF8F1"/>
<path d="M75.1994 50.9618C80.8538 50.9618 85.4413 46.359 85.4413 40.6894C85.4413 35.0198 80.8538 30.417 75.1994 30.417C69.545 30.417 64.9575 35.0198 64.9575 40.6894C64.9575 46.359 69.545 50.9618 75.1994 50.9618Z" fill="#FAF8F1"/>
<path d="M75.1988 51.7241C69.1329 51.7241 64.1948 46.7708 64.1948 40.6897C64.1948 34.6086 69.1329 29.6553 75.1988 29.6553C81.2647 29.6553 86.2027 34.6086 86.2027 40.6897C86.2027 46.7708 81.2647 51.7241 75.1988 51.7241ZM75.1988 31.1946C69.9711 31.1946 65.7189 35.4621 65.7189 40.705C65.7189 45.9478 69.9711 50.2153 75.1988 50.2153C80.4264 50.2153 84.6786 45.9478 84.6786 40.705C84.6786 35.4621 80.4264 31.1946 75.1988 31.1946Z" fill="#FAF8F1"/>
<path d="M115.71 50.9618C121.364 50.9618 125.952 46.359 125.952 40.6894C125.952 35.0198 121.364 30.417 115.71 30.417C110.055 30.417 105.468 35.0198 105.468 40.6894C105.468 46.359 110.055 50.9618 115.71 50.9618Z" fill="#FAF8F1"/>
<path d="M115.71 51.7241C109.644 51.7241 104.706 46.7708 104.706 40.6897C104.706 34.6086 109.644 29.6553 115.71 29.6553C121.776 29.6553 126.714 34.6086 126.714 40.6897C126.714 46.7708 121.776 51.7241 115.71 51.7241ZM115.71 31.1946C110.482 31.1946 106.23 35.4621 106.23 40.705C106.23 45.9478 110.482 50.2153 115.71 50.2153C120.938 50.2153 125.19 45.9478 125.19 40.705C125.19 35.4621 120.938 31.1946 115.71 31.1946Z" fill="#FAF8F1"/>
<path d="M74.1321 66.4467C57.7786 66.4467 41.5317 63.6271 25.4678 58.0032L25.9707 56.5706C57.7481 67.7269 90.3332 67.7269 122.827 56.5706L123.315 58.0184C106.9 63.6424 90.4704 66.4619 74.1168 66.4619L74.1321 66.4467Z" fill="#FAF8F1"/>
<path d="M74.7728 164.827C58.2668 164.827 41.639 160.331 25.0111 151.308L23.4565 150.47L25.133 149.921C63.9517 137.028 82.6828 108.71 80.7929 65.7609L82.317 65.7C84.2069 108.801 65.7044 137.424 27.282 150.805C59.5471 167.723 91.7664 167.448 123.071 149.982L123.818 151.308C107.678 160.316 91.2939 164.827 74.788 164.827H74.7728Z" fill="#FAF8F1"/>
<path d="M75.9761 197.214C59.8207 197.214 43.1471 192.977 26.062 184.488L26.7326 183.116C60.4456 199.851 92.4972 199.866 122.019 183.131L122.766 184.457C107.769 192.962 92.1315 197.199 75.9608 197.199L75.9761 197.214Z" fill="#FAF8F1"/>
<path d="M1.69145 112.261L0.898926 110.965C20.3311 99.0012 30.6492 81.6418 31.5637 59.4053L33.0878 59.4662C32.1428 82.2514 21.5809 100.007 1.69145 112.261Z" fill="#FAF8F1"/>
<path d="M9.57194 133.964L8.97754 132.562C41.8675 118.708 56.9408 95.7701 53.7707 64.4195L55.2947 64.2671C58.5411 96.3645 43.163 119.82 9.58718 133.979L9.57194 133.964Z" fill="#FAF8F1"/>
<path d="M55.2336 162.632L54.7002 161.2C99.2495 144.77 117.661 111.27 109.43 61.6154L110.939 61.3716C119.322 111.85 100.575 145.928 55.2336 162.648V162.632Z" fill="#FAF8F1"/>
<path d="M105.971 159.355L104.965 158.212C135.676 130.901 142.458 97.7668 125.129 59.7407L126.516 59.1006C144.165 97.8126 137.246 131.541 105.986 159.34L105.971 159.355Z" fill="#FAF8F1"/>
<path d="M26.3974 184.229C26.2754 184.975 26.1992 185.737 26.1992 186.499C26.1992 215.96 122.583 216.417 122.583 186.499C122.583 185.737 122.522 184.975 122.385 184.229C92.162 201.359 60.1255 200.978 26.3821 184.229H26.3974Z" fill="#FAF8F1"/>
<path d="M74.6652 209.529C61.9086 209.529 49.9749 207.517 41.0742 203.89C30.8475 199.713 25.437 193.693 25.437 186.5C25.437 185.677 25.498 184.884 25.6351 184.092L25.8028 183.086L26.7173 183.543C60.4302 200.277 92.4819 200.293 122.004 183.558L122.949 183.025L123.131 184.092C123.269 184.869 123.33 185.677 123.33 186.5C123.33 202.32 98.0906 209.529 74.65 209.529H74.6652ZM27.0068 185.387C26.9763 185.753 26.9611 186.134 26.9611 186.5C26.9611 200.613 50.9656 208.005 74.6652 208.005C87.1476 208.005 98.7612 206.054 107.342 202.518C113.956 199.79 121.821 194.806 121.821 186.5C121.821 186.149 121.821 185.799 121.775 185.448C92.3447 201.725 60.4759 201.71 27.0068 185.387Z" fill="#FAF8F1"/>
<defs>
<linearGradient id="paint0_linear_198_101" x1="74.4064" y1="14.8867" x2="74.4064" y2="208.34" gradientUnits="userSpaceOnUse">
<stop stop-color="#7D7D7D"/>
<stop offset="0.498263" stop-color="#585757"/>
<stop offset="1" stop-color="#484847"/>
</linearGradient>
<linearGradient id="paint1_linear_198_101" x1="74.3915" y1="0.758301" x2="74.3915" y2="20.4191" gradientUnits="userSpaceOnUse">
<stop stop-color="#7D7D7D"/>
<stop offset="0.498263" stop-color="#585757"/>
<stop offset="1" stop-color="#484847"/>
</linearGradient>
</defs>
</svg>
