<svg width="232" height="310" viewBox="0 0 232 310" fill="none" xmlns="http://www.w3.org/2000/svg">
<g filter="url(#filter0_d_198_669)">
<path d="M152.593 42.7598L189.194 106.083L152.593 267.24H79.4068L42.8062 106.083L79.4068 42.7598H152.593ZM166.786 109.472L140.408 63.8371H91.5766L65.1986 109.472L96.2468 246.178H135.753L166.801 109.472H166.786Z" fill="url(#paint0_linear_198_669)"/>
<path d="M153.202 268H78.7984L78.6615 267.407L42 105.961L42.1521 105.703L78.9658 42H153.034L153.247 42.3799L189.985 105.961L189.924 106.25L153.202 268ZM80.0154 266.48H151.985L188.372 106.205L152.152 43.5196H79.8481L43.6125 106.205L80.0002 266.48H80.0154ZM136.362 246.923H95.6536L95.5167 246.33L64.3924 109.35L64.5446 109.092L91.1356 63.0773H140.849L141.062 63.4572L167.592 109.35L167.532 109.639L136.362 246.938V246.923ZM96.8554 245.403H135.145L165.98 109.578L139.967 64.5818H92.0179L66.0049 109.578L96.8402 245.403H96.8554Z" fill="#FAF8F1"/>
<path d="M140.408 63.822L166.786 109.457L135.738 246.163H96.2317L65.1987 109.472L91.5768 63.8372H140.408V63.822ZM145.337 120.459V107.238H122.61V83.5165H109.375V107.238H86.6328V120.459H109.375V178.205H122.61V120.459H145.337Z" fill="#FAF8F1"/>
<path d="M136.347 246.923H95.6385L95.5016 246.33L64.3926 109.35L64.5447 109.092L91.1357 63.0774H140.849L141.062 63.4573L167.592 109.35L167.532 109.639L136.362 246.938L136.347 246.923ZM96.8403 245.403H135.13L165.965 109.578L139.952 64.5818H92.0028L65.9899 109.578L96.8251 245.403H96.8403ZM123.355 178.98H108.599V121.234H85.8571V106.493H108.599V82.7719H123.355V106.493H146.082V121.234H123.355V178.98ZM110.121 177.46H121.834V119.714H144.561V108.013H121.834V84.2915H110.121V108.013H87.3783V119.714H110.121V177.46Z" fill="#FAF8F1"/>
<path d="M145.352 107.253V120.474H122.61V178.22H109.375V120.474H86.6479V107.253H109.375V83.5315H122.61V107.253H145.352Z" fill="url(#paint1_linear_198_669)"/>
<path d="M123.37 178.98H108.614V121.234H85.8721V106.493H108.614V82.7717H123.37V106.493H146.097V121.234H123.37V178.98ZM110.136 177.46H121.849V119.714H144.576V108.013H121.849V84.2914H110.136V108.013H87.3933V119.714H110.136V177.46Z" fill="url(#paint2_linear_198_669)"/>
</g>
<defs>
<filter id="filter0_d_198_669" x="0" y="0" width="231.985" height="310" filterUnits="userSpaceOnUse" color-interpolation-filters="sRGB">
<feFlood flood-opacity="0" result="BackgroundImageFix"/>
<feColorMatrix in="SourceAlpha" type="matrix" values="0 0 0 0 0 0 0 0 0 0 0 0 0 0 0 0 0 0 127 0" result="hardAlpha"/>
<feOffset/>
<feGaussianBlur stdDeviation="21"/>
<feComposite in2="hardAlpha" operator="out"/>
<feColorMatrix type="matrix" values="0 0 0 0 0.980392 0 0 0 0 0.917647 0 0 0 0 0.694118 0 0 0 0.87 0"/>
<feBlend mode="normal" in2="BackgroundImageFix" result="effect1_dropShadow_198_669"/>
<feBlend mode="normal" in="SourceGraphic" in2="effect1_dropShadow_198_669" result="shape"/>
</filter>
<linearGradient id="paint0_linear_198_669" x1="116" y1="42.7598" x2="116" y2="267.24" gradientUnits="userSpaceOnUse">
<stop stop-color="#7D7D7D"/>
<stop offset="0.498263" stop-color="#585757"/>
<stop offset="1" stop-color="#484847"/>
</linearGradient>
<linearGradient id="paint1_linear_198_669" x1="116" y1="83.5315" x2="116" y2="178.22" gradientUnits="userSpaceOnUse">
<stop stop-color="#7D7D7D"/>
<stop offset="0.498263" stop-color="#585757"/>
<stop offset="1" stop-color="#484847"/>
</linearGradient>
<linearGradient id="paint2_linear_198_669" x1="115.985" y1="82.7717" x2="115.985" y2="178.98" gradientUnits="userSpaceOnUse">
<stop stop-color="#7D7D7D"/>
<stop offset="0.498263" stop-color="#585757"/>
<stop offset="1" stop-color="#484847"/>
</linearGradient>
</defs>
</svg>
