<svg width="48" height="38" viewBox="0 0 48 38" fill="none" xmlns="http://www.w3.org/2000/svg">
<path d="M24 6.51385e-06C14.92 6.51385e-06 6.68 3.56001 0.58 9.34001C0.22 9.70001 0 10.2 0 10.76C0 11.32 0.22 11.82 0.58 12.18L5.54 17.14C5.91462 17.5104 6.41912 17.7198 6.94593 17.7235C7.47274 17.7273 7.98016 17.5251 8.36 17.16C9.94 15.68 11.74 14.44 13.68 13.46C14.34 13.14 14.8 12.46 14.8 11.66V5.46001C17.7 4.50001 20.78 4.00001 24 4.00001C27.18 4.00001 30.28 4.50001 33.18 5.44001V11.64C33.18 12.42 33.64 13.12 34.3 13.44C36.26 14.42 38 15.68 39.64 17.14C40 17.5 40.5 17.7 41 17.7C41.6 17.7 42.1 17.48 42.46 17.12L47.42 12.16C47.78 11.8 48 11.3 48 10.74C48 10.18 47.76 9.70001 47.4 9.34001C41.0879 3.33873 32.7097 -0.00538694 24 6.51385e-06ZM18 8.00001V14C18 14 6 24 6 30V38H42V30C42 24 30 14 30 14V8.00001H26V12H22V8.00001H18ZM24 18C26.1217 18 28.1566 18.8429 29.6569 20.3432C31.1571 21.8434 32 23.8783 32 26C32 28.1217 31.1571 30.1566 29.6569 31.6569C28.1566 33.1572 26.1217 34 24 34C21.8783 34 19.8434 33.1572 18.3431 31.6569C16.8429 30.1566 16 28.1217 16 26C16 23.8783 16.8429 21.8434 18.3431 20.3432C19.8434 18.8429 21.8783 18 24 18ZM24 21C22.6739 21 21.4021 21.5268 20.4645 22.4645C19.5268 23.4022 19 24.6739 19 26C19 27.3261 19.5268 28.5979 20.4645 29.5355C21.4021 30.4732 22.6739 31 24 31C25.3261 31 26.5979 30.4732 27.5355 29.5355C28.4732 28.5979 29 27.3261 29 26C29 24.6739 28.4732 23.4022 27.5355 22.4645C26.5979 21.5268 25.3261 21 24 21Z" fill="#FAF8F1"/>
</svg>
