<svg width="154" height="48" viewBox="0 0 154 48" fill="none" xmlns="http://www.w3.org/2000/svg">
<path d="M38.6052 19.9521C40.0043 19.2639 42.8026 18.0061 45.341 17.7737L45.1223 13.7632C42.2785 14.0503 39.2205 15.3674 37.6026 16.1695C36.8142 15.0256 35.5472 14.3921 33.8838 14.3921V18.4026C34.6722 18.4026 35.2373 18.6305 35.4151 18.9176C35.5472 19.2047 35.5472 19.8336 35.5472 20.2939V45.045H38.6098V19.9521H38.6052ZM63.0055 45.8471C64.8877 45.8471 66.2868 45.1043 67.0706 43.614C67.7269 42.2969 67.7269 40.8659 67.7269 40.0046V19.4964C67.7269 18.6943 67.7269 17.2633 67.0706 15.9462C66.2822 14.4559 64.8831 13.6538 63.0055 13.6538H55.0483C53.125 13.6538 51.767 14.4559 50.9831 15.9462C50.3268 17.2633 50.3268 18.6943 50.3268 19.4964V19.5556C50.3268 20.3577 50.2812 39.7813 50.3268 40.0091C50.3268 40.8705 50.3268 42.3015 50.9831 43.6186C51.7715 45.1088 53.125 45.8517 55.0483 45.8517H63.0055V45.8471ZM53.3848 19.5511C53.3848 19.0908 53.3848 18.4618 53.517 18.1747C53.6902 17.8876 54.2598 17.6597 55.0483 17.6597H63.0055C63.7939 17.6597 64.359 17.8876 64.4912 18.1747C64.6643 18.4618 64.6643 19.0908 64.6643 19.5511V40.0046C64.6643 40.4649 64.6643 41.0345 64.4912 41.3217C64.359 41.6635 63.7939 41.8367 63.0055 41.8367H55.0483C54.2598 41.8367 53.6947 41.6635 53.517 41.3217C53.3848 41.0345 53.3848 40.4603 53.3848 40.0046C53.3393 39.7175 53.3848 19.8974 53.3848 19.5511ZM90.9057 17.719C90.3816 16.4566 89.771 15.4859 89.0691 14.7977C88.1941 14.0549 87.2325 13.6538 86.1843 13.7677C81.9004 14.0549 79.011 14.3967 77.3521 14.5698V1.38989H74.2895V39.3529C74.2895 39.7539 74.2895 40.392 74.1163 40.6791C73.9842 41.0209 73.4145 41.1941 72.5851 41.1941V45.2137C74.5083 45.2137 75.9074 44.4571 76.6503 42.9122H76.6958L85.487 45.674C85.7513 45.7879 86.0111 45.8471 86.362 45.8471C87.2781 45.8471 88.5496 45.3869 89.6844 43.4317C90.4728 42.1147 91.0835 40.2735 91.6076 37.9219C91.9995 35.8483 92.3049 33.5012 92.437 31.0265C92.7014 25.6306 92.1317 20.8089 90.9057 17.7144V17.719ZM89.3745 30.744C89.1557 35.2239 88.3263 39.1296 87.2735 40.9707C86.6628 41.946 86.3119 41.8321 86.1797 41.7729L77.3475 39.0111V18.5758C78.9198 18.4026 81.9368 18.1155 86.3575 17.7737C86.6628 17.7144 87.4057 17.6597 88.1941 19.6057C89.1557 21.9665 89.5932 26.2595 89.3745 30.7394V30.744ZM127.333 41.0391V2.36517H124.27V21.2145H115.876L119.376 9.35619V9.29695C119.859 7.23246 119.594 5.05858 118.633 3.56832C118.109 2.82547 116.969 1.62232 114.96 1.67701V5.6875C115.443 5.6875 116.008 5.74675 116.313 6.20249C116.577 6.60354 116.618 7.34639 116.445 8.03455L112.553 21.4424V25.225H124.275V41.0391H122.525V45.0496H129.083V41.0391H127.333ZM148.63 21.6748C148.848 21.333 149.113 20.9319 149.331 20.4716C150.598 18.1246 151.214 15.5451 151.214 12.6238C151.214 9.70256 151.214 7.00914 150.033 4.94465C148.853 2.82547 147.714 1.85019 144.04 1.85019C140.367 1.85019 138.576 2.65229 137.396 4.65753C136.215 6.60354 136.215 9.24226 136.215 12.6193H139.278C139.278 10.1537 139.278 7.97987 139.802 7.11852C140.285 6.25718 141.465 5.85613 144.045 5.85613C146.624 5.85613 147.016 6.31642 147.586 7.34639C148.156 8.32167 148.156 10.3269 148.156 12.6193C148.156 17.2587 146.014 19.7789 143.348 22.9326C142.737 23.6755 142.081 24.4229 141.424 25.2797L143.566 28.1463C144.177 27.3442 144.792 26.656 145.403 25.9132C145.795 25.4529 146.146 25.0518 146.497 24.5961C148.069 27.0024 149.031 29.5226 149.031 33.0728C149.031 35.9941 149.031 38.4596 148.333 39.7767C148.115 40.1185 147.723 40.6927 146.67 41.0938C145.663 41.4948 145.357 41.7227 143.566 41.7227C140.244 41.7227 139.282 41.1485 138.58 40.0046C137.879 38.8607 137.879 36.2812 137.879 33.0728H134.816C134.816 37.0833 134.816 40.2325 136.17 42.4701C137.523 44.7625 139.054 45.7378 143.562 45.7378C145.663 45.7378 146.314 45.4507 147.586 44.9357C149.031 44.3614 150.033 43.4454 150.776 42.1283C152.089 39.7813 152.089 36.6868 152.089 33.0774C152.089 30.3293 151.651 27.8637 150.689 25.5167C150.165 24.2543 149.509 22.9964 148.634 21.6794L148.63 21.6748Z" fill="#FAF8F1"/>
<path d="M86.3531 47.1415C85.87 47.1415 85.4462 47.064 85.0315 46.8909L77.2247 44.439C76.3998 45.5236 74.987 46.508 72.5807 46.508H71.291V39.9044H72.5807C72.7539 39.9044 72.886 39.8953 72.9818 39.8816C72.9954 39.6947 72.9954 39.4623 72.9954 39.3529V0.10022H78.642V13.1343C80.3647 12.952 82.8166 12.7014 86.0706 12.4826C87.4104 12.3459 88.7047 12.7925 89.9033 13.8179L89.9717 13.8817C90.792 14.6884 91.5075 15.8141 92.0954 17.2269L92.1045 17.2496C93.4034 20.5264 93.9913 25.576 93.7224 31.0995C93.5948 33.483 93.3077 35.862 92.8702 38.1726C92.2732 40.8432 91.6123 42.7163 90.7874 44.1017C89.3245 46.6174 87.5699 47.1461 86.3531 47.1461V47.1415ZM75.8347 41.6271H76.8464L77.0788 41.6863L85.9976 44.4937C86.0797 44.5301 86.1617 44.5575 86.3531 44.5575C87.3238 44.5575 88.0895 43.5913 88.5589 42.7847C89.2425 41.6453 89.8213 39.9636 90.3408 37.6439C90.751 35.4883 91.0244 33.2233 91.1429 30.9628C91.3936 25.813 90.8695 21.1644 89.7073 18.2158C89.2607 17.1448 88.7503 16.3154 88.1897 15.7548C87.5471 15.2171 86.9319 14.9892 86.3166 15.053H86.262C82.7026 15.2945 80.1095 15.5725 78.3959 15.7594L76.0534 16.0055V2.68881H75.5749V39.3621C75.5749 40.0548 75.5521 40.7202 75.2696 41.2579C75.028 41.7957 74.5586 42.1603 73.8704 42.3471V43.7645C74.832 43.4728 75.2422 42.8621 75.4792 42.3654L75.8301 41.6316L75.8347 41.6271ZM63.0056 47.1415H55.0485C52.0178 47.1415 50.5458 45.551 49.8394 44.2202C49.0327 42.6024 49.0327 40.9161 49.0327 40.0092C49.0099 39.3074 49.0008 36.2858 49.0282 21.1189V19.501C49.0282 18.6123 49.0282 16.9625 49.8211 15.372C50.8648 13.3941 52.6649 12.3641 55.0439 12.3641H63.0011C65.3436 12.3641 67.1939 13.4214 68.2102 15.3447C69.0168 16.9625 69.0168 18.6123 69.0168 19.501V40.0092C69.0168 40.9161 69.0168 42.6069 68.2238 44.1929C67.1984 46.1343 65.3983 47.1415 63.0011 47.1415H63.0056ZM51.6122 39.8543V39.8816L51.6167 40.0047C51.6167 40.7976 51.6167 41.9917 52.1363 43.0399C52.4735 43.6779 53.1571 44.5575 55.0485 44.5575H63.0056C64.423 44.5575 65.38 44.0516 65.9315 43.0125C66.4374 41.9962 66.4374 40.7976 66.4374 40.0047V19.4964C66.4374 18.7764 66.4374 17.5641 65.9178 16.5205C65.3618 15.4677 64.4048 14.9436 63.0056 14.9436H55.0485C53.6311 14.9436 52.7014 15.454 52.1226 16.5478C51.6167 17.5641 51.6167 18.7764 51.6167 19.4964V21.1189C51.594 32.7402 51.594 39.0339 51.6122 39.8543ZM143.553 47.0276C138.923 47.0276 136.776 46.0432 135.049 43.1265C133.513 40.5971 133.513 37.2748 133.513 33.0729V31.7831H139.159V33.0729C139.159 35.7389 139.159 38.4962 139.67 39.3302C139.998 39.8725 140.34 40.4285 143.553 40.4285C144.87 40.4285 145.148 40.3146 145.822 40.0366C145.932 39.991 146.05 39.9408 146.178 39.8907C146.834 39.6401 147.057 39.3393 147.199 39.1251C147.727 38.0678 147.727 35.6387 147.727 33.0683C147.727 30.7258 147.29 28.7798 146.301 26.8338C146.132 27.0389 145.95 27.2531 145.772 27.4673C145.362 27.9549 144.975 28.4152 144.583 28.9257L143.544 30.2838L139.793 25.2706L140.385 24.4959C140.855 23.8806 141.32 23.3292 141.766 22.796C141.962 22.5636 142.149 22.3402 142.336 22.1124C144.97 18.9997 146.852 16.7757 146.852 12.6193C146.852 10.769 146.852 8.67265 146.46 7.99816C146.096 7.3419 145.991 7.15049 144.036 7.15049C141.529 7.15049 141.023 7.56977 140.923 7.7475L140.9 7.78852C140.563 8.33996 140.563 10.8101 140.563 12.6148V13.9045H134.917V12.6148C134.917 9.05092 134.917 6.23901 136.284 3.98311C137.733 1.51757 139.911 0.5514 144.036 0.5514C148.16 0.5514 149.796 1.87304 151.155 4.30668C152.499 6.65373 152.499 9.41551 152.499 12.6102C152.499 15.805 151.838 18.5166 150.48 21.0459C150.375 21.2601 150.266 21.4652 150.156 21.6521C150.826 22.7367 151.392 23.8396 151.879 25.0063C152.886 27.4719 153.379 30.106 153.379 33.0638C153.379 36.8418 153.379 40.1049 151.902 42.7436C150.995 44.3524 149.737 45.4553 148.06 46.1207L147.983 46.1526C146.707 46.6721 145.863 47.0139 143.557 47.0139L143.553 47.0276ZM136.101 34.3672C136.115 37.5573 136.234 40.1004 137.268 41.8003C138.243 43.45 139.15 44.4435 143.553 44.4435C145.353 44.4435 145.868 44.2339 147.003 43.7736L147.089 43.7371C148.238 43.2814 149.022 42.5887 149.641 41.4904C150.785 39.4395 150.785 36.4909 150.785 33.0729C150.785 30.4569 150.362 28.1418 149.482 25.9998C148.958 24.742 148.324 23.5616 147.545 22.3858L147.08 21.6885L147.586 20.891C147.782 20.5811 147.987 20.2621 148.156 19.9112L148.183 19.8519C149.345 17.7008 149.91 15.3355 149.91 12.6148C149.91 9.67072 149.91 7.3419 148.899 5.57819C147.928 3.83727 147.221 3.13544 144.027 3.13544C140.431 3.13544 139.342 3.86462 138.494 5.30475C137.633 6.72665 137.51 8.76836 137.496 11.3205H137.975C137.993 8.91875 138.102 7.41482 138.672 6.46232C139.624 4.79432 141.807 4.5619 144.027 4.5619C146.729 4.5619 147.777 5.04498 148.698 6.71754C149.427 7.96626 149.427 10.0171 149.427 12.6102C149.427 17.7145 147.062 20.5036 144.328 23.7394C144.132 23.9809 143.931 24.2133 143.735 24.4503C143.503 24.7238 143.27 25.0063 143.033 25.2934L143.585 26.0317C143.653 25.9542 143.717 25.8722 143.785 25.7947C143.986 25.5578 144.186 25.3208 144.382 25.0792L144.524 24.9152C144.865 24.5187 145.157 24.1769 145.449 23.7986L146.556 22.3448L147.554 23.8715C149.455 26.7746 150.302 29.6093 150.302 33.0592C150.302 36.2494 150.302 38.765 149.45 40.3692L149.4 40.4558C149.026 41.0437 148.429 41.782 147.108 42.2879L146.798 42.4155C145.886 42.7938 145.285 43.0034 143.539 43.0034C140.098 43.0034 138.503 42.3927 137.45 40.6655C136.671 39.394 136.575 37.2565 136.562 34.3535H136.083L136.101 34.3672ZM130.373 46.3394H121.231V39.7449H122.981V26.5148H111.259V21.2556L115.201 7.67459C115.27 7.4057 115.265 7.14593 115.242 6.99098C115.183 6.98187 115.092 6.97731 114.955 6.97731H113.665V0.419236L114.919 0.382777C116.851 0.332646 118.537 1.19399 119.686 2.82098L119.713 2.86199C120.834 4.5938 121.185 7.04111 120.661 9.43374V9.534L117.599 19.9157H122.972V1.0755H128.618V39.7449H130.368V46.3394H130.373ZM123.815 43.7554H127.789V42.3289H126.039V3.65953H125.56V22.5089H114.144L118.113 9.00534C118.519 7.26898 118.305 5.46881 117.557 4.29301C117.188 3.77803 116.751 3.40888 116.245 3.19468V4.59835C116.651 4.74875 117.07 5.01763 117.384 5.48704C117.936 6.33016 117.904 7.51964 117.694 8.35364L113.843 21.6247V23.9308H125.565V42.3289H123.815V43.7554ZM39.8997 46.3394H34.2531V20.2985C34.2531 20.1664 34.2531 19.9294 34.244 19.7289C34.1483 19.7152 34.0298 19.7015 33.884 19.7015H32.5942V13.107H33.884C35.5018 13.107 36.9055 13.6265 37.9309 14.5881C39.6946 13.7815 42.3789 12.747 44.9949 12.4826L46.3393 12.3459L46.6993 18.9495L45.4597 19.0635C43.9376 19.2002 42.028 19.7881 39.8997 20.7679V46.3394ZM36.8372 43.7554H37.3157V19.1501L38.0357 18.7946C39.6126 18.0198 41.8229 17.0856 43.9831 16.6663L43.9057 15.2626C41.513 15.7594 39.1751 16.8349 38.1725 17.3317L37.1698 17.8284L36.5364 16.9033C36.2037 16.4202 35.7479 16.0784 35.1737 15.8824V17.2907C35.7798 17.4775 36.2447 17.8056 36.5136 18.2477L36.5865 18.3844C36.8144 18.8857 36.8326 19.5192 36.8326 20.2985V43.7554H36.8372ZM63.0056 43.131H55.0485C53.344 43.131 52.6513 42.4656 52.3642 41.9096L52.3414 41.8641C52.1135 41.3628 52.0953 40.7521 52.0953 40.0092C52.077 39.3712 52.0634 36.4134 52.0953 20.3122V19.5557C52.0953 18.7809 52.1135 18.1474 52.3459 17.6416L52.4188 17.5049C52.8609 16.7848 53.818 16.3701 55.053 16.3701H63.0102C64.2908 16.3701 65.2433 16.8076 65.6353 17.5687C65.936 18.111 65.9634 18.79 65.9634 19.5557V40.0092C65.9634 40.5971 65.9634 41.3172 65.658 41.896C65.3892 42.4839 64.7055 43.131 63.0102 43.131H63.0056ZM54.6839 40.5287C54.775 40.5379 54.8935 40.547 55.0485 40.547H63.0056C63.156 40.547 63.2745 40.5379 63.3657 40.5287C63.3748 40.3556 63.3748 40.1459 63.3748 40.0047V19.5511C63.3748 19.4098 63.3748 19.1729 63.3611 18.9769C63.27 18.9632 63.1515 18.9495 63.0011 18.9495H55.0439C54.8981 18.9495 54.7796 18.9587 54.6839 18.9769C54.6747 19.182 54.6748 19.419 54.6748 19.5466V20.3076C54.6429 36.1081 54.6565 39.3985 54.6702 39.8725V40.0001C54.6747 40.1277 54.6747 40.3373 54.6839 40.5242V40.5287ZM86.3486 43.1037C86.1161 43.1037 85.9156 43.0535 85.747 42.9897L76.0534 39.9591V17.4183L77.2064 17.2907C78.168 17.1858 80.9708 16.8942 86.1982 16.4886C87.5244 16.2835 88.5999 17.1676 89.3929 19.1227C90.4228 21.6475 90.9014 26.018 90.6644 30.8033C90.4411 35.4062 89.5706 39.5444 88.3994 41.6043L88.372 41.6544C87.652 42.7983 86.9228 43.0991 86.3531 43.0991L86.3486 43.1037ZM78.6375 38.0632L86.1025 40.3966C86.1207 40.3692 86.1389 40.3419 86.1617 40.3054C87.1233 38.5919 87.8753 34.8183 88.0804 30.6802C88.29 26.3826 87.8616 22.2309 86.9957 20.098C86.7359 19.4554 86.5263 19.1774 86.426 19.068C82.5978 19.3688 80.0821 19.6013 78.6375 19.7425V38.0632Z" fill="#FAF8F1"/>
<path fill-rule="evenodd" clip-rule="evenodd" d="M22.0715 22.2947L27.7454 22.3494L29.6914 12.7333L25.2753 0.232422H9.48397L5.45068 12.6467L9.36547 45.8518H24.3091L25.8404 30.8444L25.4485 30.3294L24.9198 29.8235L24.2271 29.3495L23.5617 28.9485L22.951 28.6933L22.2948 28.5155L18.2843 28.4927L18.2615 33.679H20.1528L19.3097 40.0639H14.5472L11.2477 12.7333L13.6449 5.89725H21.1782L23.6346 12.7333L22.0715 22.2947Z" fill="#FAF8F1"/>
<path d="M24.3547 45.8973H9.3199V45.8518L5.396 12.6376V12.6285L9.44751 0.182251H25.3072L25.3209 0.214153L29.7415 12.7287V12.7424L27.7864 22.3949H27.7454L22.0122 22.3402L22.0213 22.2856L23.5799 12.7378L21.1417 5.94278H13.6768L11.2978 12.7378L14.5882 40.0138H19.2641L20.0936 33.7246H18.2114L18.2341 28.4426H18.2843L22.3039 28.4654L22.9601 28.6431L23.5799 28.9029L24.2499 29.3085L24.9472 29.7824L25.4804 30.2929L25.8905 30.8261L24.3547 45.8973ZM9.41105 45.7971H24.2681L25.7903 30.8534L25.4075 30.3567L24.8879 29.8554L24.1998 29.386L23.5389 28.9849L22.9328 28.7297L22.2857 28.5565L18.3344 28.5337L18.3162 33.6198H20.212L19.3553 40.1049H14.5062V40.0593L11.2021 12.7196V12.7105L13.613 5.83796H21.2147L21.2283 5.86986L23.6893 12.7196V12.7333L22.1353 22.2354L27.7135 22.2856L29.6458 12.7242L25.2479 0.264284H9.52954L5.50537 12.633L9.41561 45.7834L9.41105 45.7971Z" fill="#FAF8F1"/>
<path fill-rule="evenodd" clip-rule="evenodd" d="M3.56387 12.7334L7.7521 0.0501709H4.22469L0.0546875 12.7334L4.25659 45.6103H7.84325L3.56387 12.7334Z" fill="#FAF8F1"/>
<path d="M7.89794 45.6558H4.21102V45.6148L0 12.7288V12.7197L4.18823 0H7.81591L7.79312 0.0638035L3.60945 12.7379L7.89339 45.6558H7.89794ZM4.29761 45.5556H7.78401L3.50919 12.7242V12.7151L7.67919 0.095705H4.2566L0.100263 12.7379L4.29761 45.5556Z" fill="#FAF8F1"/>
</svg>
