<svg width="50" height="60" viewBox="0 0 50 60" fill="none" xmlns="http://www.w3.org/2000/svg">
<path d="M49.0909 24.5455C49.0909 43.6364 24.5455 60 24.5455 60C24.5455 60 0 43.6364 0 24.5455C9.70045e-08 18.0356 2.58603 11.7924 7.1892 7.1892C11.7924 2.58603 18.0356 0 24.5455 0C31.0553 0 37.2986 2.58603 41.9017 7.1892C46.5049 11.7924 49.0909 18.0356 49.0909 24.5455Z" fill="#302726"/>
<path d="M24.5455 32.7273C29.0642 32.7273 32.7274 29.0642 32.7274 24.5455C32.7274 20.0268 29.0642 16.3636 24.5455 16.3636C20.0268 16.3636 16.3637 20.0268 16.3637 24.5455C16.3637 29.0642 20.0268 32.7273 24.5455 32.7273Z" fill="#FAF8F1" stroke="#302726" stroke-width="2" stroke-linecap="round" stroke-linejoin="round"/>
</svg>
