<svg width="133" height="254" viewBox="0 0 133 254" fill="none" xmlns="http://www.w3.org/2000/svg">
<path d="M75.2256 85.1172V175.267L105.296 185.593L103.242 203.982L75.2256 194.356V253.56H57.1408V188.151L27.0702 177.824L29.1249 159.436L29.2228 159.485L57.1408 169.062V85.1172H0.44043V67.0709H57.1408V41.0602H28.7336V22.9976H57.1408V0.439697H75.2256V22.9976H103.617V41.0602H75.2256V67.0709H131.926V85.1172H75.2256Z" fill="url(#paint0_linear_198_423)"/>
<path d="M57.1408 0.439697V22.9976H28.7336V41.0439H57.1408V67.0546H0.44043V85.1009H57.1408V169.046L29.2228 159.469L29.1086 159.436L27.0539 177.824L57.1245 188.151V253.56H66.1588C68.6864 159.029 69.5507 71.2568 66.1588 0.439697H57.1245H57.1408Z" fill="#FAF8F1"/>
<path d="M75.6658 254H56.7167V188.46L26.5972 178.118L28.7497 158.85L29.3694 159.062L56.7004 168.443V85.557H0V66.6312H56.7004V41.5H28.2931V22.5742H56.7004V0H75.6495V22.5579H104.057V41.4837H75.6495V66.6149H132.35V85.5408H75.6495V174.942L105.753 185.268L103.6 204.552L75.6495 194.959V253.984L75.6658 254ZM57.5973 253.12H74.7852V193.737L102.866 203.379L104.823 185.887L74.7852 175.577V84.6775H131.486V67.5107H74.7852V40.6205H103.192V23.4537H74.7852V0.879513H57.5973V23.4374H29.19V40.6042H57.5973V67.4945H0.880593V84.6612H57.581V169.648L29.4999 160.006L27.543 177.499L57.581 187.809V253.088L57.5973 253.12Z" fill="#FAF8F1"/>
<defs>
<linearGradient id="paint0_linear_198_423" x1="66.1832" y1="0.439697" x2="66.1832" y2="253.56" gradientUnits="userSpaceOnUse">
<stop stop-color="#7D7D7D"/>
<stop offset="0.498263" stop-color="#585757"/>
<stop offset="1" stop-color="#484847"/>
</linearGradient>
</defs>
</svg>
