<svg width="148" height="226" viewBox="0 0 148 226" fill="none" xmlns="http://www.w3.org/2000/svg">
<path d="M110.593 0.759766L147.194 64.0829L110.593 225.24H37.4068L0.806152 64.0829L37.4068 0.759766H110.593ZM124.786 67.4717L98.408 21.8371H49.5766L23.1986 67.4717L54.2468 204.178H93.753L124.801 67.4717H124.786Z" fill="url(#paint0_linear_243_669)"/>
<path d="M111.202 226H36.7984L36.6615 225.407L0 63.9614L0.152123 63.7031L36.9658 0H111.034L111.247 0.379909L147.985 63.9614L147.924 64.2501L111.202 226ZM38.0154 224.48H109.985L146.372 64.2045L110.152 1.51963H37.8481L1.6125 64.2045L38.0002 224.48H38.0154ZM94.3616 204.923H53.6536L53.5167 204.33L22.3924 67.3502L22.5446 67.0919L49.1356 21.0773H98.8492L99.0622 21.4572L125.592 67.3502L125.532 67.6389L94.3616 204.938V204.923ZM54.8554 203.403H93.1446L123.98 67.5781L97.9669 22.5818H50.0179L24.0049 67.5781L54.8402 203.403H54.8554Z" fill="#FAF8F1"/>
<path d="M98.4081 21.822L124.786 67.4566L93.7379 204.163H54.2317L23.1987 67.4718L49.5768 21.8372H98.4081V21.822ZM103.337 78.4588V65.238H80.6098V41.5165H67.3751V65.238H44.6328V78.4588H67.3751V136.205H80.6098V78.4588H103.337Z" fill="#FAF8F1"/>
<path d="M94.3465 204.923H53.6385L53.5016 204.33L22.3926 67.3503L22.5447 67.0919L49.1357 21.0774H98.8494L99.0623 21.4573L125.592 67.3503L125.532 67.639L94.3617 204.938L94.3465 204.923ZM54.8403 203.403H93.1295L123.965 67.5782L97.9518 22.5818H50.0028L23.9899 67.5782L54.8251 203.403H54.8403ZM81.3553 136.98H66.5994V79.2338H43.8571V64.4933H66.5994V40.7719H81.3553V64.4933H104.082V79.2338H81.3553V136.98ZM68.1206 135.46H79.834V77.7142H102.561V66.013H79.834V42.2915H68.1206V66.013H45.3783V77.7142H68.1206V135.46Z" fill="#FAF8F1"/>
<path d="M103.352 65.253V78.4738H80.6097V136.22H67.3751V78.4738H44.6479V65.253H67.3751V41.5315H80.6097V65.253H103.352Z" fill="url(#paint1_linear_243_669)"/>
<path d="M81.3703 136.98H66.6144V79.2337H43.8721V64.4932H66.6144V40.7717H81.3703V64.4932H104.097V79.2337H81.3703V136.98ZM68.1356 135.46H79.849V77.714H102.576V66.0128H79.849V42.2914H68.1356V66.0128H45.3933V77.714H68.1356V135.46Z" fill="url(#paint2_linear_243_669)"/>
<defs>
<linearGradient id="paint0_linear_243_669" x1="73.9999" y1="0.759766" x2="73.9999" y2="225.24" gradientUnits="userSpaceOnUse">
<stop stop-color="#7D7D7D"/>
<stop offset="0.498263" stop-color="#585757"/>
<stop offset="1" stop-color="#484847"/>
</linearGradient>
<linearGradient id="paint1_linear_243_669" x1="74" y1="41.5315" x2="74" y2="136.22" gradientUnits="userSpaceOnUse">
<stop stop-color="#7D7D7D"/>
<stop offset="0.498263" stop-color="#585757"/>
<stop offset="1" stop-color="#484847"/>
</linearGradient>
<linearGradient id="paint2_linear_243_669" x1="73.9847" y1="40.7717" x2="73.9847" y2="136.98" gradientUnits="userSpaceOnUse">
<stop stop-color="#7D7D7D"/>
<stop offset="0.498263" stop-color="#585757"/>
<stop offset="1" stop-color="#484847"/>
</linearGradient>
</defs>
</svg>
