<svg width="119" height="226" viewBox="0 0 119 226" fill="none" xmlns="http://www.w3.org/2000/svg">
<path d="M67.4884 75.7343V155.947L94.2442 165.134L92.416 181.496L67.4884 172.931V225.609H51.3972V167.41L24.6415 158.222L26.4697 141.861L26.5568 141.904L51.3972 150.425V75.7343H0.947266V59.6774H51.3972V36.5339H26.1215V20.4625H51.3972V0.391312H67.4884V20.4625H92.7497V36.5339H67.4884V59.6774H117.938V75.7343H67.4884Z" fill="url(#paint0_linear_121_882)"/>
<path d="M51.3972 0.391312V20.4625H26.1215V36.5194H51.3972V59.6629H0.947266V75.7198H51.3972V150.411L26.5568 141.89L26.4552 141.861L24.627 158.222L51.3827 167.41V225.609H59.4211C61.6701 141.498 62.4391 63.4018 59.4211 0.391312H51.3827H51.3972Z" fill="#FAF8F1"/>
<path d="M67.8801 226H51.0199V167.685L24.2206 158.483L26.1359 141.339L26.6873 141.527L51.0054 149.874V76.1256H0.55542V59.2861H51.0054V36.9252H25.7296V20.0857H51.0054V0H67.8656V20.0712H93.1413V36.9107H67.8656V59.2716H118.316V76.1111H67.8656V155.657L94.6503 164.845L92.7351 182.003L67.8656 173.467V225.986L67.8801 226ZM51.8034 225.217H67.0966V172.38L92.0821 180.959L93.8233 165.395L67.0966 156.222V75.343H117.547V60.0686H67.0966V36.1426H92.3723V20.8682H67.0966V0.782559H51.8034V20.8537H26.5277V36.1281H51.8034V60.0541H1.33894V75.3285H51.7889V150.947L26.8033 142.368L25.0622 157.932L51.7889 167.105V225.188L51.8034 225.217Z" fill="#FAF8F1"/>
<defs>
<linearGradient id="paint0_linear_121_882" x1="59.4428" y1="0.391312" x2="59.4428" y2="225.609" gradientUnits="userSpaceOnUse">
<stop stop-color="#7D7D7D"/>
<stop offset="0.498263" stop-color="#585757"/>
<stop offset="1" stop-color="#484847"/>
</linearGradient>
</defs>
</svg>
