<svg width="118" height="225" viewBox="0 0 118 225" fill="none" xmlns="http://www.w3.org/2000/svg">
<path d="M67.5819 225H50.7964V166.943L24.1157 157.781L26.0225 140.713L26.5714 140.901L50.7819 149.211V75.7887H0.555176V59.0237H50.7819V36.7618H25.618V19.9968H50.7819V0H67.5675V19.9824H92.7314V36.7474H67.5675V59.0093H117.794V75.7743H67.5675V154.968L94.2337 164.115L92.327 181.198L67.5675 172.7V224.986L67.5819 225ZM51.5764 224.221H66.8019V171.618L91.6769 180.159L93.4104 164.663L66.8019 155.531V75.0096H117.029V59.8028H66.8019V35.9827H91.9658V20.7759H66.8019V0.779096H51.5764V20.7615H26.4125V35.9683H51.5764V59.7884H1.33523V74.9952H51.562V150.279L26.6869 141.738L24.9535 157.233L51.562 166.366V224.192L51.5764 224.221Z" fill="#FAF8F1"/>
</svg>
