<svg width="191" height="192" viewBox="0 0 191 192" fill="none" xmlns="http://www.w3.org/2000/svg">
<path d="M188.818 105.5L176.676 93.3577L188.818 81.2157C190.668 79.3659 190.668 76.4569 188.818 74.7652L176.518 62.4651L187.427 50.323C189.119 48.4733 188.961 45.7065 187.269 44.0148L171.902 28.6476C170.052 26.7978 167.143 26.7978 165.451 28.6476L153.309 40.7896L141.167 28.6476C139.318 26.7978 136.409 26.7978 134.717 28.6476L122.575 40.7896L110.433 28.6476C108.583 26.7978 105.674 26.7978 103.982 28.6476L91.8403 40.7896L79.6982 28.6476C77.8484 26.7978 74.9394 26.7978 73.2478 28.6476L61.8646 40.0149L50.4814 28.6476C48.6317 26.7978 45.7226 26.7978 44.031 28.6476L28.6637 44.0148C26.8139 45.8646 26.8139 48.7736 28.6637 50.4653L40.8057 62.6073L28.6637 74.7494C26.8139 76.5992 26.8139 79.5082 28.6637 81.1998L40.8057 93.3419L28.6637 105.484C26.8139 107.334 26.8139 110.243 28.6637 111.934L40.8057 124.076L28.6637 136.218C26.8139 138.068 26.8139 140.977 28.6637 142.669L40.8057 154.811L28.6637 166.953C26.8139 168.803 26.8139 171.712 28.6637 173.403L44.031 188.771C45.8807 190.621 48.7898 190.621 50.4814 188.771L62.6235 176.629L74.7655 188.771C76.6153 190.621 79.5243 190.621 81.216 188.771L93.358 176.629L105.5 188.771C107.35 190.621 110.259 190.621 111.951 188.771L124.093 176.629L136.235 188.771C138.084 190.621 140.993 190.621 142.685 188.771L154.827 176.629L166.969 188.771C167.886 189.688 169.119 190.162 170.194 190.162C171.269 190.162 172.503 189.704 173.42 188.771L188.787 173.403C190.637 171.554 190.637 168.645 188.787 166.953L176.645 154.811L188.787 142.669C190.637 140.819 190.637 137.91 188.787 136.218L176.645 124.076L188.787 111.934C190.637 110.085 190.637 107.318 188.787 105.484L188.818 105.5Z" fill="url(#paint0_linear_198_246)"/>
<path d="M170.226 191C168.866 191 167.443 190.399 166.447 189.387L154.859 177.799L143.27 189.387C142.353 190.383 141.057 190.968 139.649 191C138.179 191.032 136.756 190.447 135.697 189.387L124.108 177.799L112.52 189.387C111.603 190.383 110.306 190.968 108.899 191C107.445 191.032 106.006 190.447 104.947 189.387L93.358 177.799L81.7693 189.387C80.8523 190.383 79.5559 190.968 78.1488 191C76.6785 191.032 75.2556 190.447 74.1963 189.387L62.6076 177.799L51.0189 189.387C50.1019 190.383 48.8055 190.968 47.3984 191C45.9439 191.032 44.5052 190.447 43.4459 189.387L28.0787 174.02C27.0827 173.103 26.4977 171.807 26.4661 170.4C26.4344 168.945 27.0194 167.49 28.0787 166.447L39.6674 154.858L28.0787 143.27C27.0827 142.353 26.4977 141.056 26.4661 139.649C26.4344 138.195 27.0194 136.756 28.0787 135.697L39.6674 124.108L28.0787 112.519C27.0827 111.602 26.4977 110.306 26.4661 108.899C26.4344 107.444 27.0194 106.006 28.0787 104.946L39.6674 93.3576L28.0787 81.769C27.0827 80.852 26.4977 79.5556 26.4661 78.1485C26.4344 76.694 27.0194 75.2553 28.0787 74.196L39.6674 62.6073L28.0787 51.0186C27.0827 50.1016 26.4977 48.8052 26.4661 47.3981C26.4344 45.9436 27.0194 44.5049 28.0787 43.4456L43.4459 28.0784C44.3629 27.0823 45.6593 26.4974 47.0664 26.4657C48.4735 26.4341 49.9596 27.0191 51.0189 28.0784L61.8329 38.8924L72.6469 28.0784C73.5639 27.0823 74.8603 26.4974 76.2674 26.4657C77.7061 26.4183 79.1606 27.0191 80.2199 28.0784L91.8086 39.6671L103.397 28.0784C104.314 27.0823 105.611 26.4974 107.018 26.4657C108.472 26.4183 109.911 27.0191 110.97 28.0784L122.559 39.6671L134.148 28.0784C135.065 27.0823 136.361 26.4974 137.768 26.4657C139.207 26.4183 140.661 27.0191 141.721 28.0784L153.309 39.6671L164.898 28.0784C165.815 27.0823 167.111 26.4974 168.518 26.4657C169.957 26.4183 171.412 27.0191 172.471 28.0784L187.838 43.4456C189.878 45.4851 189.957 48.7262 188.012 50.8447L177.609 62.4334L189.372 74.196C190.368 75.113 190.953 76.4094 190.984 77.8165C191.016 79.271 190.431 80.7097 189.372 81.769L177.783 93.3576L189.372 104.946C190.415 105.99 190.984 107.334 190.984 108.741C190.984 110.148 190.415 111.492 189.372 112.535L177.783 124.124L189.372 135.712C190.368 136.629 190.953 137.926 190.984 139.333C191.016 140.787 190.431 142.226 189.372 143.285L177.783 154.874L189.372 166.463C190.368 167.38 190.953 168.676 190.984 170.083C191.016 171.538 190.431 172.977 189.372 174.036L174.005 189.403C172.993 190.415 171.586 191.016 170.21 191.016L170.226 191ZM154.859 175.569L167.57 188.265C169.009 189.703 171.459 189.703 172.914 188.265L188.281 172.897C189.04 172.139 189.451 171.143 189.435 170.099C189.419 169.135 189.008 168.234 188.313 167.585L175.586 154.858L188.297 142.147C189.056 141.388 189.467 140.392 189.451 139.349C189.435 138.384 189.024 137.483 188.328 136.835L175.601 124.108L188.313 111.397C189.056 110.654 189.467 109.705 189.467 108.725C189.467 107.745 189.056 106.796 188.313 106.053L175.601 93.3418L188.313 80.6306C189.071 79.8718 189.482 78.8757 189.467 77.8323C189.451 76.8679 189.04 75.9667 188.344 75.3185L175.491 62.465L186.905 49.7696C188.281 48.2835 188.218 45.991 186.779 44.5523L171.412 29.1851C170.653 28.4262 169.641 27.9993 168.613 28.0309C167.649 28.0467 166.748 28.4578 166.1 29.1534L153.373 41.8804L140.661 29.1851C139.902 28.4262 138.891 27.9993 137.863 28.0309C136.899 28.0467 135.997 28.4578 135.349 29.1534L122.622 41.8804L109.911 29.1851C109.152 28.4262 108.14 27.9993 107.113 28.0309C106.148 28.0467 105.247 28.4578 104.599 29.1534L91.8718 41.8804L79.1606 29.1851C78.4017 28.4262 77.3899 27.9993 76.3623 28.0309C75.3979 28.0467 74.4967 28.4578 73.8485 29.1534L61.8962 41.1058L49.9596 29.1693C49.2008 28.4104 48.1889 27.9835 47.1455 28.0151C46.1811 28.0309 45.2799 28.442 44.6475 29.1376L29.2486 44.5365C28.4897 45.2954 28.0787 46.2914 28.0945 47.3349C28.1103 48.2993 28.5214 49.2005 29.217 49.8487L41.944 62.5757L29.2486 75.2869C28.4897 76.0457 28.0787 77.0418 28.0945 78.0852C28.1103 79.0496 28.5214 79.9508 29.217 80.599L41.944 93.326L29.2486 106.037C28.4897 106.796 28.0787 107.792 28.0945 108.836C28.1103 109.8 28.5214 110.701 29.217 111.349L41.944 124.076L29.2486 136.788C28.4897 137.546 28.0787 138.542 28.0945 139.586C28.1103 140.55 28.5214 141.451 29.217 142.1L41.944 154.827L29.2486 167.538C28.4897 168.297 28.0787 169.293 28.0945 170.336C28.1103 171.301 28.5214 172.202 29.217 172.85L44.6159 188.249C45.3748 189.008 46.3708 189.419 47.4142 189.403C48.3787 189.387 49.2798 188.976 49.928 188.281L62.655 175.554L75.3662 188.249C76.1251 189.008 77.1053 189.419 78.1646 189.403C79.129 189.387 80.0302 188.976 80.6784 188.281L93.4054 175.554L106.117 188.249C106.875 189.008 107.856 189.419 108.915 189.403C109.879 189.387 110.781 188.976 111.429 188.281L124.156 175.554L136.867 188.249C137.626 189.008 138.638 189.419 139.665 189.403C140.63 189.387 141.531 188.976 142.179 188.281L154.906 175.554L154.859 175.569Z" fill="#FAF8F1"/>
<path d="M153.309 16.4898L137.942 1.12256L122.575 16.4898L107.192 1.12256L91.8242 16.4898L76.4412 1.12256L61.0739 16.4898L45.7066 1.12256L31.0982 15.731L16.4898 1.12256L1.12256 16.4898L16.4898 31.8571L1.12256 47.2402L16.4898 62.6074L1.12256 77.9905L16.4898 93.3578L1.12256 108.725L16.4898 124.092L1.12256 139.475L16.4898 154.843L31.8571 139.475L47.2244 154.843L62.5916 139.475L77.9589 154.843L93.3262 139.475L108.693 154.843L124.061 139.475L139.428 154.843L154.795 139.475L139.428 124.108L154.795 108.741L139.428 93.3736L154.795 78.0063L139.428 62.6391L154.795 47.2718L139.428 31.9045L153.262 16.5373L153.309 16.4898Z" fill="#FAF8F1"/>
<path d="M139.475 155.965L124.108 140.598L108.741 155.965L93.3736 140.598L78.0063 155.965L62.639 140.598L47.2717 155.965L31.9045 140.598L16.5372 155.965L0 139.475L15.3673 124.108L0 108.725L15.3673 93.3577L0 77.9905L15.3673 62.6232L0 47.2401L15.3673 31.8729L0 16.4898L16.4898 0L31.0982 14.6084L45.7066 0L61.0738 15.3673L76.4411 0L91.8084 15.3673L107.191 0L122.559 15.3673L137.942 0L154.4 16.4582L140.566 31.8254L155.965 47.2243L140.598 62.5916L155.965 77.9589L140.598 93.3261L155.965 108.693L140.598 124.061L155.965 139.428L139.475 155.918V155.965ZM124.108 138.353L139.475 153.72L153.736 139.46L138.369 124.092L153.736 108.725L138.369 93.3577L153.736 77.9905L138.369 62.6232L153.736 47.2559L138.384 31.9045L152.218 16.5372L137.942 2.26082L122.575 17.6281L107.207 2.26082L91.84 17.6281L76.4411 2.2292L61.0738 17.5965L45.7066 2.2292L31.0982 16.8376L16.4898 2.2292L2.2292 16.4898L17.5965 31.857L2.2292 47.2401L17.5965 62.6074L2.2292 77.9905L17.5965 93.3577L2.2292 108.725L17.5965 124.092L2.2292 139.46L16.4898 153.72L31.857 138.353L47.2243 153.72L62.5916 138.353L77.9589 153.72L93.3261 138.353L108.693 153.72L124.061 138.353H124.108Z" fill="#FAF8F1"/>
<defs>
<linearGradient id="paint0_linear_198_246" x1="108.741" y1="27.2603" x2="108.741" y2="190.162" gradientUnits="userSpaceOnUse">
<stop stop-color="#7D7D7D"/>
<stop offset="0.498263" stop-color="#585757"/>
<stop offset="1" stop-color="#484847"/>
</linearGradient>
</defs>
</svg>
